<?xml version="1.0" encoding="utf-8"?>
<!-- Generator: Adobe Illustrator 22.1.0, SVG Export Plug-In . SVG Version: 6.00 Build 0)  -->
<svg version="1.1" id="Layer_1" xmlns="http://www.w3.org/2000/svg" xmlns:xlink="http://www.w3.org/1999/xlink" x="0px" y="0px"
	 viewBox="0 0 392 392" style="enable-background:new 0 0 392 392;" xml:space="preserve">
<style type="text/css">
	.st0{fill:#8CC63F;}
	.st1{fill:#FFFFFF;}
	.st2{fill:#A67C52;}
	.st3{fill:#FFD15F;}
	.st4{fill:#FF7BAC;}
	.st5{fill:#FFD15F;stroke:#000000;stroke-width:4;stroke-miterlimit:10;}
</style>
<g id="Layer_1_1_">
	<g>
		<path class="st0" d="M106.6,388.5c-58.5,0-106.1-47.6-106.1-106.1V111.6C0.5,53.1,48.1,5.5,106.6,5.5h177.9
			c58.5,0,106.1,47.6,106.1,106.1v170.9c0,58.5-47.6,106.1-106.1,106.1L106.6,388.5L106.6,388.5z"/>
		<path class="st1" d="M284.4,6C312.5,6,339,17,359,37s31,46.5,31,74.6v170.9c0,28.1-11,54.6-31,74.6s-46.5,31-74.6,31H106.6
			c-28.1,0-54.6-11-74.6-31S1,310.6,1,282.5V111.6C1,83.5,12,57,32,37S78.5,6,106.6,6H284.4 M284.4,5H106.6C48,5,0,53,0,111.6v170.9
			C0,341,48,389,106.6,389h177.9C343,389,391,341,391,282.4V111.6C391,53,343,5,284.4,5L284.4,5z"/>
	</g>
</g>
<g id="Layer_2_1_">
	<g>
		
			<rect x="102" y="171" transform="matrix(0.7071 -0.7071 0.7071 0.7071 -128.3217 212.2052)" class="st1" width="180" height="180"/>
	</g>
	<g>
		<circle class="st1" cx="127.5" cy="196.5" r="90.5"/>
	</g>
	<g>
		<circle class="st1" cx="255.5" cy="197.5" r="90.5"/>
	</g>
</g>
<g id="Layer_3">
	<path class="st2" d="M192,133v32c0,0-94.9-27.1-82.7,25c4.7,20-4.4,23.2-15,24.1C60,217,81,249,78,274c0,0-57-38-37-105
		c0,0,17-62,86-63C127,106,163,103,192,133z"/>
	<path class="st3" d="M192,133v32c0,0,94.7-27.1,82.4,25c-4.7,20,4.4,23.2,15,24.1c34.3,2.9,13.3,34.9,16.3,59.9c0,0,57-38,37-105
		c0,0-17-62-86-63C256.7,106,221,103,192,133z"/>
</g>
<g id="lips_kiss">
	<g>
		<path class="st4" d="M194.7,246l-0.4-0.4l-0.4,0.4c0.1-0.2,0.3-0.3,0.4-0.5C194.5,245.7,194.6,245.9,194.7,246z"/>
	</g>
	<g>
		<path class="st4" d="M201.6,254.5c0,1.7-0.8,3.2-2,4.2l-7.3,7.3l-7.3-7.3c-1.2-1-2-2.5-2-4.2c0-3,2.5-5.5,5.5-5.5
			c1.5,0,2.9,0.6,3.8,1.6c-0.1,0.1-0.3,0.3-0.4,0.5l0.4-0.4l0.4,0.4c-0.1-0.2-0.3-0.3-0.4-0.5c1-1,2.3-1.6,3.8-1.6
			C199.2,249,201.6,251.5,201.6,254.5z"/>
	</g>
	<g>
		<path class="st4" d="M194.7,246l-0.4-0.4l-0.4,0.4c0.1-0.2,0.3-0.3,0.4-0.5C194.5,245.7,194.6,245.9,194.7,246z"/>
	</g>
	<path class="st5" d="M207.7,211.7"/>
</g>
</svg>
