<?xml version="1.0" encoding="utf-8"?>
<!-- Generator: Adobe Illustrator 22.1.0, SVG Export Plug-In . SVG Version: 6.00 Build 0)  -->
<svg version="1.1" id="Layer_1" xmlns="http://www.w3.org/2000/svg" xmlns:xlink="http://www.w3.org/1999/xlink" x="0px" y="0px"
	 viewBox="0 0 398 387" style="enable-background:new 0 0 398 387;" xml:space="preserve">
<style type="text/css">
	.st0{fill:#FFFFFF;}
	.st1{fill:#A67C52;}
	.st2{fill:#FFD15F;}
	.st3{fill:#FF7BAC;}
	.st4{fill:#FFD15F;stroke:#000000;stroke-width:4;stroke-miterlimit:10;}
</style>
<g>
	<g id="Layer_1_4_">
		<g>
			<path class="st0" d="M112.6,386.1C54.1,386.1,6.5,338.5,6.5,280V109.2C6.5,50.7,54.1,3.1,112.6,3.1h177.9
				c58.5,0,106.1,47.6,106.1,106.1v170.9c0,58.5-47.6,106.1-106.1,106.1L112.6,386.1L112.6,386.1z"/>
			<path class="st0" d="M290.4,3.6c28.1,0,54.6,11,74.6,31s31,46.5,31,74.6v170.9c0,28.1-11,54.6-31,74.6s-46.5,31-74.6,31H112.6
				c-28.1,0-54.6-11-74.6-31S7,308.2,7,280.1V109.2c0-28.1,11-54.6,31-74.6s46.5-31,74.6-31L290.4,3.6 M290.4,2.6H112.6
				C54,2.6,6,50.6,6,109.2v170.9c0,58.5,48,106.5,106.6,106.5h177.9c58.5,0,106.5-48,106.5-106.6V109.2C397,50.6,349,2.6,290.4,2.6
				L290.4,2.6z"/>
		</g>
	</g>
	<g>
		<g id="Layer_2_3_">
			<g>
				<path class="st0" d="M203.9,137.1l-5.9-5.9l-6.8,6.8c2.1-2.6,4.4-5.1,6.8-7.5C200.1,132.7,202,134.9,203.9,137.1z"/>
			</g>
			<g>
				<path class="st0" d="M203.9,137.1l-5.9-5.9l-6.8,6.8c2.1-2.6,4.4-5.1,6.8-7.5C200.1,132.7,202,134.9,203.9,137.1z"/>
			</g>
		</g>
		<g id="Layer_3_3_">
			<path class="st1" d="M198,130.6v32c0,0-94.9-27.1-82.7,25c4.7,20-4.4,23.2-15,24.1C66,214.6,87,246.6,84,271.6c0,0-57-38-37-105
				c0,0,17-62,86-63C133,103.6,169,100.6,198,130.6z"/>
			<path class="st2" d="M198,130.6v32c0,0,94.7-27.1,82.4,25c-4.7,20,4.4,23.2,15,24.1c34.3,2.9,13.3,34.9,16.3,59.9
				c0,0,57-38,37-105c0,0-17-62-86-63C262.7,103.6,227,100.6,198,130.6z"/>
		</g>
	</g>
	<g id="lips_kiss_2_">
		<g>
			<path class="st3" d="M200.7,243.6l-0.4-0.4l-0.4,0.4c0.1-0.2,0.3-0.3,0.4-0.5C200.5,243.2,200.6,243.5,200.7,243.6z"/>
		</g>
		<g>
			<path class="st3" d="M207.6,252.1c0,1.7-0.8,3.2-2,4.2l-7.3,7.3l-7.3-7.3c-1.2-1-2-2.5-2-4.2c0-3,2.5-5.5,5.5-5.5
				c1.5,0,2.9,0.6,3.8,1.6c-0.1,0.1-0.3,0.3-0.4,0.5l0.4-0.4l0.4,0.4c-0.1-0.2-0.3-0.3-0.4-0.5c1-1,2.3-1.6,3.8-1.6
				C205.2,246.6,207.6,249.1,207.6,252.1z"/>
		</g>
		<g>
			<path class="st3" d="M200.7,243.6l-0.4-0.4l-0.4,0.4c0.1-0.2,0.3-0.3,0.4-0.5C200.5,243.2,200.6,243.5,200.7,243.6z"/>
		</g>
		<path class="st4" d="M213.7,209.2"/>
	</g>
</g>
</svg>
