<svg xmlns="http://www.w3.org/2000/svg" viewBox="0 0 310.21 282.35"><defs><style>.cls-1{fill:#fff;}.cls-2{fill:#a67c52;}.cls-3{fill:#ffd15f;}.cls-4{fill:#ff7bac;}</style></defs><title>Asset 3</title><g id="Layer_2" data-name="Layer 2"><g id="Layer_1-2" data-name="Layer 1"><g id="Layer_2-2" data-name="Layer 2"><path class="cls-1" d="M309.25,91.58A90.3,90.3,0,0,1,275.65,162L155.24,282.35,33.8,160.91A90.49,90.49,0,1,1,155.25,27.11a89,89,0,0,0-6.79,7.47l6.78-6.78,5.88,5.88q-2.77-3.43-5.87-6.57a90.49,90.49,0,0,1,154,64.47Z"/><path class="cls-1" d="M161.12,33.68l-5.88-5.88-6.78,6.78a89,89,0,0,1,6.79-7.47Q158.34,30.24,161.12,33.68Z"/><path class="cls-1" d="M161.12,33.68l-5.88-5.88-6.78,6.78a89,89,0,0,1,6.79-7.47Q158.34,30.24,161.12,33.68Z"/></g><g id="Layer_3" data-name="Layer 3"><path class="cls-2" d="M155.25,27.08v32s-94.9-27.1-82.7,25c4.7,20-4.4,23.2-15,24.1-34.3,2.9-13.3,34.9-16.3,59.9,0,0-57-38-37-105,0,0,17-62,86-63C90.25.08,126.25-2.92,155.25,27.08Z"/><path class="cls-3" d="M155.25,27.08v32s94.7-27.1,82.4,25c-4.7,20,4.4,23.2,15,24.1,34.3,2.9,13.3,34.9,16.3,59.9,0,0,57-38,37-105,0,0-17-62-86-63C220,.08,184.25-2.92,155.25,27.08Z"/></g><g id="lips_kiss" data-name="lips kiss"><path class="cls-4" d="M158,139.08l-.4-.4-.4.4c.1-.2.3-.3.4-.5C157.75,138.78,157.85,139,158,139.08Z"/><path class="cls-4" d="M164.85,147.58a5.47,5.47,0,0,1-2,4.2l-7.3,7.3-7.3-7.3a5.47,5.47,0,0,1-2-4.2,5.55,5.55,0,0,1,5.5-5.5,5.12,5.12,0,0,1,3.8,1.6,2.18,2.18,0,0,0-.4.5l.4-.4.4.4c-.1-.2-.3-.3-.4-.5a5.29,5.29,0,0,1,3.8-1.6A5.48,5.48,0,0,1,164.85,147.58Z"/><path class="cls-4" d="M158,139.08l-.4-.4-.4.4c.1-.2.3-.3.4-.5C157.75,138.78,157.85,139,158,139.08Z"/></g></g></g></svg>