<svg xmlns="http://www.w3.org/2000/svg" viewBox="0 0 1177.64 384"><defs><style>.cls-1{fill:#fff;}.cls-2{fill:#a67c52;}.cls-3{fill:#ffd15f;}.cls-4{fill:#ff7bac;}</style></defs><title>Asset 1</title><g id="Layer_2" data-name="Layer 2"><g id="Layer_2-2" data-name="Layer 2"><g id="Layer_1-2" data-name="Layer 1"><path class="cls-1" d="M106.6,383.5A106.22,106.22,0,0,1,.5,277.4V106.6A106.22,106.22,0,0,1,106.6.5H284.5A106.22,106.22,0,0,1,390.6,106.6V277.5A106.22,106.22,0,0,1,284.5,383.6l-177.9-.1Z"/><path class="cls-1" d="M284.4,1A105.84,105.84,0,0,1,390,106.6V277.5A105.84,105.84,0,0,1,284.4,383.1H106.6A105.84,105.84,0,0,1,1,277.5V106.6A105.84,105.84,0,0,1,106.6,1H284.4m0-1H106.6C48,0,0,48,0,106.6V277.5C0,336,48,384,106.6,384H284.5C343,384,391,336,391,277.4V106.6C391,48,343,0,284.4,0Z"/></g><g id="Layer_2-3" data-name="Layer 2"><path class="cls-1" d="M197.87,134.6,192,128.72l-6.78,6.78A89,89,0,0,1,192,128Q195.09,131.17,197.87,134.6Z"/><path class="cls-1" d="M197.87,134.6,192,128.72l-6.78,6.78A89,89,0,0,1,192,128Q195.09,131.17,197.87,134.6Z"/></g><g id="Layer_3" data-name="Layer 3"><path class="cls-2" d="M192,128v32s-94.9-27.1-82.7,25c4.7,20-4.4,23.2-15,24.1C60,212,81,244,78,269c0,0-57-38-37-105,0,0,17-62,86-63C127,101,163,98,192,128Z"/><path class="cls-3" d="M192,128v32s94.7-27.1,82.4,25c-4.7,20,4.4,23.2,15,24.1,34.3,2.9,13.3,34.9,16.3,59.9,0,0,57-38,37-105,0,0-17-62-86-63C256.7,101,221,98,192,128Z"/></g><g id="lips_kiss" data-name="lips kiss"><path class="cls-4" d="M194.7,241l-.4-.4-.4.4c.1-.2.3-.3.4-.5C194.5,240.7,194.6,240.9,194.7,241Z"/><path class="cls-4" d="M201.6,249.5a5.47,5.47,0,0,1-2,4.2l-7.3,7.3-7.3-7.3a5.47,5.47,0,0,1-2-4.2,5.55,5.55,0,0,1,5.5-5.5,5.12,5.12,0,0,1,3.8,1.6,2.18,2.18,0,0,0-.4.5l.4-.4.4.4c-.1-.2-.3-.3-.4-.5a5.29,5.29,0,0,1,3.8-1.6A5.48,5.48,0,0,1,201.6,249.5Z"/><path class="cls-4" d="M194.7,241l-.4-.4-.4.4c.1-.2.3-.3.4-.5C194.5,240.7,194.6,240.9,194.7,241Z"/></g><path class="cls-1" d="M525.07,253.16a120.47,120.47,0,0,1-27.21,16.41A76.18,76.18,0,0,1,468.38,275q-14.92,0-26.22-5.9a43.13,43.13,0,0,1-17.4-16,41.52,41.52,0,0,1-6.11-21.88q0-15.92,10.09-27.14t27.7-15.06q3.71-.86,18.33-3.84t25.08-5.47q10.44-2.47,22.66-6-.71-15.35-6.18-22.52T493.67,144q-14.78,0-22.24,4.12a36.14,36.14,0,0,0-12.78,12.36q-5.34,8.25-7.53,10.87T441.67,174a16.55,16.55,0,0,1-11.3-4.19,13.66,13.66,0,0,1-4.76-10.73q0-10.23,7.25-19.89t22.59-15.91q15.35-6.26,38.22-6.25,25.57,0,40.21,6t20.67,19.11q6,13.08,6,34.67,0,13.63-.07,23.16t-.22,21.17a77.75,77.75,0,0,0,3.63,22.8q3.62,11.87,3.62,15.28,0,6-5.61,10.87a18.86,18.86,0,0,1-12.72,4.9q-6,0-11.79-5.61T525.07,253.16ZM522.51,197a196.08,196.08,0,0,1-24.79,6.6q-16.28,3.5-22.52,5.12a30.71,30.71,0,0,0-11.94,6.39q-5.68,4.77-5.68,13.29a19.65,19.65,0,0,0,6.68,15q6.67,6.18,17.47,6.18A45.34,45.34,0,0,0,503,244.56q9.73-5,14.28-13,5.26-8.81,5.26-29Z"/><path class="cls-1" d="M594.83,120.74h4.26V97.44q0-9.37.5-14.71a21.63,21.63,0,0,1,2.77-9.16,17.34,17.34,0,0,1,6.54-6.46,18.5,18.5,0,0,1,9.51-2.49,19.18,19.18,0,0,1,13.36,5.54,16.41,16.41,0,0,1,5,9,81.93,81.93,0,0,1,1.07,15.13v26.43h14.21q8.24,0,12.57,3.91a12.86,12.86,0,0,1,4.33,10q0,7.82-6.18,10.94t-17.68,3.13h-7.25v71.32a115,115,0,0,0,.64,14,14.14,14.14,0,0,0,3.41,7.95q2.77,3.06,9,3.06a48,48,0,0,0,9.24-1.21,48.34,48.34,0,0,1,9.09-1.21,11.69,11.69,0,0,1,8.45,3.77,12.65,12.65,0,0,1,3.77,9.31q0,9.38-10.23,14.35t-29.41,5q-18.2,0-27.57-6.11A28.35,28.35,0,0,1,602,252q-2.91-10.8-2.91-28.84V148.73H594q-8.38,0-12.79-4a13,13,0,0,1-4.41-10.09,12.51,12.51,0,0,1,4.62-10Q586,120.74,594.83,120.74Z"/><path class="cls-1" d="M834.8,227q0,7.24-4.33,15.48a53.14,53.14,0,0,1-13.22,15.7q-8.88,7.46-22.37,12a95,95,0,0,1-30.41,4.54q-35.94,0-56.12-20.95t-20.17-56.19q0-23.88,9.23-42.2a66.34,66.34,0,0,1,26.71-28.35q17.48-10,41.77-10a83.33,83.33,0,0,1,27.64,4.4,72.38,72.38,0,0,1,21.31,11.37,54.47,54.47,0,0,1,13.35,14.84q4.62,7.89,4.62,14.71a15.52,15.52,0,0,1-5.18,11.79A17.79,17.79,0,0,1,815.05,179a12.75,12.75,0,0,1-8-2.48,39.58,39.58,0,0,1-7.17-8q-7.11-10.8-14.85-16.2t-19.68-5.4q-17.19,0-27.7,13.43T727.1,197a70.91,70.91,0,0,0,2.7,20.1,45.7,45.7,0,0,0,7.82,15.63,33.38,33.38,0,0,0,12.36,9.8,37.48,37.48,0,0,0,15.91,3.34q11.65,0,20-5.4T800.56,224a38.12,38.12,0,0,1,7.67-10.23,14.59,14.59,0,0,1,10.09-3.69,14.94,14.94,0,0,1,11.79,5.4A17.27,17.27,0,0,1,834.8,227Z"/><path class="cls-1" d="M899.31,83.23v57.54a82.51,82.51,0,0,1,14.42-13.49,51.63,51.63,0,0,1,15.55-7.46,65.17,65.17,0,0,1,18.33-2.49q14.77,0,26.22,6.25a48.58,48.58,0,0,1,23.51,33.74,122.55,122.55,0,0,1,1.42,19.83v74.3q0,11.66-5.33,17.62t-14.13,6q-19.18,0-19.18-23.59V186q0-18.6-5.55-28.63t-21-10a31.6,31.6,0,0,0-18.69,5.89,35.57,35.57,0,0,0-12.43,16.13q-3.12,8.67-3.12,30.83v51.29q0,11.51-5.19,17.55t-14.42,6q-19.19,0-19.18-23.59V83.23q0-11.79,5-17.69t14.14-5.89q9.22,0,14.42,6T899.31,83.23Z"/><path class="cls-1" d="M1135.16,253.16A120.47,120.47,0,0,1,1108,269.57a76.18,76.18,0,0,1-29.48,5.47q-14.92,0-26.22-5.9a43.13,43.13,0,0,1-17.4-16,41.52,41.52,0,0,1-6.11-21.88q0-15.92,10.09-27.14t27.7-15.06q3.71-.86,18.33-3.84t25.08-5.47q10.44-2.47,22.66-6-.7-15.35-6.18-22.52T1103.76,144q-14.77,0-22.24,4.12a36.14,36.14,0,0,0-12.78,12.36q-5.34,8.25-7.53,10.87t-9.45,2.63a16.55,16.55,0,0,1-11.3-4.19,13.66,13.66,0,0,1-4.76-10.73q0-10.23,7.25-19.89t22.59-15.91q15.35-6.26,38.22-6.25,25.58,0,40.21,6t20.67,19.11q6,13.08,6,34.67,0,13.63-.07,23.16t-.22,21.17A77.75,77.75,0,0,0,1174,244q3.62,11.87,3.62,15.28,0,6-5.61,10.87a18.86,18.86,0,0,1-12.72,4.9q-6,0-11.79-5.61T1135.16,253.16ZM1132.6,197a196.08,196.08,0,0,1-24.79,6.6q-16.27,3.5-22.52,5.12a30.71,30.71,0,0,0-11.94,6.39q-5.68,4.77-5.68,13.29a19.65,19.65,0,0,0,6.68,15q6.68,6.18,17.47,6.18a45.34,45.34,0,0,0,21.24-5.05q9.74-5,14.28-13,5.27-8.81,5.26-29Z"/></g></g></svg>