<?xml version="1.0" encoding="utf-8"?>
<!-- Generator: Adobe Illustrator 22.0.0, SVG Export Plug-In . SVG Version: 6.00 Build 0)  -->
<svg version="1.1" id="Calque_1" xmlns="http://www.w3.org/2000/svg" xmlns:xlink="http://www.w3.org/1999/xlink" x="0px" y="0px"
	 viewBox="0 0 1177.6 384" style="enable-background:new 0 0 1177.6 384;" xml:space="preserve">
<style type="text/css">
	.st0{fill:#F2F2F2;}
	.st1{fill:#A67C52;}
	.st2{fill:#FFD15F;}
	.st3{fill:#FF7BAC;}
</style>
<title>Asset 1</title>
<g id="Layer_2">
	<g id="Layer_2-2">
		<g id="Layer_1-2">
			<path class="st0" d="M106.6,383.5C48,383.4,0.6,336,0.5,277.4V106.6C0.6,48,48,0.6,106.6,0.5h177.9
				c58.6,0.1,106,47.5,106.1,106.1v170.9c-0.1,58.6-47.5,106-106.1,106.1C284.5,383.6,106.6,383.5,106.6,383.5z"/>
			<path class="st0" d="M284.4,1C342.7,1.1,389.9,48.3,390,106.6v170.9c-0.1,58.3-47.3,105.5-105.6,105.6H106.6
				C48.3,383,1.1,335.8,1,277.5V106.6C1.1,48.3,48.3,1.1,106.6,1H284.4 M284.4,0H106.6C48,0,0,48,0,106.6v170.9
				C0,336,48,384,106.6,384h177.9C343,384,391,336,391,277.4V106.6C391,48,343,0,284.4,0z"/>
		</g>
		<g id="Layer_2-3">
			<path class="st0" d="M197.9,134.6l-5.9-5.9l-6.8,6.8c2.1-2.6,4.4-5.1,6.8-7.5C194.1,130.1,196,132.3,197.9,134.6z"/>
			<path class="st0" d="M197.9,134.6l-5.9-5.9l-6.8,6.8c2.1-2.6,4.4-5.1,6.8-7.5C194.1,130.1,196,132.3,197.9,134.6z"/>
		</g>
		<g id="Layer_3">
			<path class="st1" d="M192,128v32c0,0-94.9-27.1-82.7,25c4.7,20-4.4,23.2-15,24.1C60,212,81,244,78,269c0,0-57-38-37-105
				c0,0,17-62,86-63C127,101,163,98,192,128z"/>
			<path class="st2" d="M192,128v32c0,0,94.7-27.1,82.4,25c-4.7,20,4.4,23.2,15,24.1c34.3,2.9,13.3,34.9,16.3,59.9c0,0,57-38,37-105
				c0,0-17-62-86-63C256.7,101,221,98,192,128z"/>
		</g>
		<g id="lips_kiss">
			<path class="st3" d="M194.7,241l-0.4-0.4l-0.4,0.4c0.1-0.2,0.3-0.3,0.4-0.5C194.5,240.7,194.6,240.9,194.7,241z"/>
			<path class="st3" d="M201.6,249.5c0,1.6-0.7,3.2-2,4.2l-7.3,7.3l-7.3-7.3c-1.3-1-2-2.6-2-4.2c0-3,2.5-5.5,5.5-5.5
				c1.4,0,2.8,0.6,3.8,1.6c-0.2,0.1-0.3,0.3-0.4,0.5l0.4-0.4l0.4,0.4c-0.1-0.2-0.3-0.3-0.4-0.5c1-1,2.4-1.6,3.8-1.6
				C199.1,244,201.6,246.4,201.6,249.5C201.6,249.5,201.6,249.5,201.6,249.5z"/>
			<path class="st3" d="M194.7,241l-0.4-0.4l-0.4,0.4c0.1-0.2,0.3-0.3,0.4-0.5C194.5,240.7,194.6,240.9,194.7,241z"/>
		</g>
		<path class="st0" d="M525.1,253.2c-8.3,6.6-17.5,12.2-27.2,16.4c-9.4,3.7-19.4,5.6-29.5,5.4c-9.9,0-18.7-2-26.2-5.9
			c-7.2-3.6-13.2-9.2-17.4-16c-4-6.6-6.1-14.2-6.1-21.9c0-10.6,3.4-19.7,10.1-27.1c6.7-7.5,16-12.5,27.7-15.1
			c2.5-0.6,8.6-1.9,18.3-3.8s18.1-3.8,25.1-5.5c7-1.6,14.5-3.6,22.7-6c-0.5-10.2-2.5-17.7-6.2-22.5c-3.6-4.8-11.2-7.2-22.7-7.2
			c-9.9,0-17.3,1.4-22.2,4.1c-5.2,3-9.6,7.2-12.8,12.4c-3.6,5.5-6.1,9.1-7.5,10.9c-1.5,1.7-4.6,2.6-9.5,2.7
			c-4.2,0.1-8.2-1.4-11.3-4.2c-3.1-2.7-4.9-6.6-4.8-10.7c0-6.8,2.4-13.4,7.2-19.9c4.8-6.4,12.4-11.7,22.6-15.9
			c10.2-4.2,23-6.3,38.2-6.2c17,0,30.4,2,40.2,6s16.7,10.4,20.7,19.1c4,8.7,6,20.3,6,34.7c0,9.1,0,16.8-0.1,23.2
			c0,6.4-0.1,13.4-0.2,21.2c0.1,7.7,1.3,15.4,3.6,22.8c2.4,7.9,3.6,13,3.6,15.3c0,4-1.9,7.6-5.6,10.9c-3.5,3.2-8,4.9-12.7,4.9
			c-4,0-7.9-1.9-11.8-5.6S529.4,260.2,525.1,253.2z M522.5,197c-8.1,2.7-16.4,4.9-24.8,6.6c-10.9,2.3-18.4,4-22.5,5.1
			c-4.4,1.2-8.5,3.4-11.9,6.4c-3.8,3.2-5.7,7.6-5.7,13.3c-0.1,5.7,2.4,11.2,6.7,15c4.4,4.1,10.3,6.2,17.5,6.2
			c7.4,0.1,14.7-1.6,21.3-5c6.5-3.3,11.2-7.7,14.3-13c3.5-5.9,5.3-15.5,5.3-29L522.5,197z"/>
		<path class="st0" d="M594.8,120.7h4.3V97.4c0-6.2,0.2-11.2,0.5-14.7c0.2-3.2,1.2-6.4,2.8-9.2c1.6-2.7,3.8-4.9,6.5-6.5
			c2.9-1.7,6.2-2.5,9.5-2.5c5,0,9.8,2,13.4,5.5c2.6,2.4,4.3,5.5,5,9c0.8,5,1.2,10.1,1.1,15.1v26.4h14.2c5.5,0,9.7,1.3,12.6,3.9
			c2.9,2.5,4.4,6.2,4.3,10c0,5.2-2.1,8.9-6.2,10.9s-10,3.1-17.7,3.1h-7.2V220c-0.1,4.7,0.1,9.4,0.6,14c0.3,2.9,1.5,5.7,3.4,7.9
			c1.8,2,4.8,3.1,9,3.1c3.1-0.1,6.2-0.5,9.2-1.2c3-0.7,6-1.1,9.1-1.2c3.2,0,6.3,1.4,8.5,3.8c2.5,2.5,3.9,5.8,3.8,9.3
			c0,6.3-3.4,11-10.2,14.4c-6.8,3.3-16.6,5-29.4,5c-12.1,0-21.3-2-27.6-6.1c-6.1-3.9-10.5-9.9-12.2-16.9c-1.9-7.2-2.9-16.8-2.9-28.8
			v-74.4H594c-5.6,0-9.9-1.3-12.8-4c-2.9-2.5-4.5-6.2-4.4-10.1c-0.1-3.9,1.6-7.6,4.6-10C584.5,122,588.9,120.7,594.8,120.7z"/>
		<path class="st0" d="M834.8,227c0,4.8-1.4,10-4.3,15.5c-3.3,6-7.8,11.4-13.2,15.7c-5.9,5-13.4,9-22.4,12
			c-9.8,3.2-20.1,4.7-30.4,4.5c-24,0-42.7-7-56.1-20.9c-13.5-14-20.2-32.7-20.2-56.2c0-15.9,3.1-30,9.2-42.2
			c5.9-11.9,15.2-21.8,26.7-28.3c11.7-6.7,25.6-10,41.8-10c9.4-0.1,18.7,1.4,27.6,4.4c7.7,2.6,14.9,6.4,21.3,11.4
			c5.3,4.1,9.9,9.1,13.3,14.8c3.1,5.3,4.6,10.2,4.6,14.7c0.1,4.5-1.8,8.8-5.2,11.8c-3.4,3.2-7.9,5-12.6,4.9c-2.9,0.1-5.7-0.8-8-2.5
			c-2.7-2.3-5.2-5-7.2-8c-4.7-7.2-9.7-12.6-14.8-16.2s-11.7-5.4-19.7-5.4c-11.5,0-20.7,4.5-27.7,13.4c-7,9-10.5,21.2-10.6,36.6
			c-0.1,6.8,0.8,13.6,2.7,20.1c1.6,5.7,4.2,11,7.8,15.6c3.3,4.2,7.5,7.6,12.4,9.8c5,2.3,10.4,3.4,15.9,3.3c7.8,0,14.4-1.8,20-5.4
			c5.6-3.6,10.5-9.1,14.7-16.5c2-3.8,4.6-7.3,7.7-10.2c2.8-2.5,6.4-3.8,10.1-3.7c4.5-0.1,8.9,1.9,11.8,5.4
			C833,218.6,834.7,222.7,834.8,227z"/>
		<path class="st0" d="M899.3,83.2v57.5c4.2-5.1,9.1-9.6,14.4-13.5c4.7-3.3,10-5.9,15.5-7.5c6-1.7,12.1-2.5,18.3-2.5
			c9.8,0,18.6,2.1,26.2,6.2c12.4,7.2,21.1,19.6,23.5,33.7c1,6.6,1.5,13.2,1.4,19.8v74.3c0,7.8-1.8,13.6-5.3,17.6s-8.3,6-14.1,6
			c-12.8,0-19.2-7.9-19.2-23.6V186c0-12.4-1.8-21.9-5.5-28.6s-10.7-10-21-10c-6.7-0.1-13.2,2-18.7,5.9c-5.6,4.1-9.9,9.7-12.4,16.1
			c-2.1,5.8-3.1,16.1-3.1,30.8v51.3c0,7.7-1.7,13.5-5.2,17.5c-3.5,4-8.3,6-14.4,6c-12.8,0-19.2-7.9-19.2-23.6V83.2
			c0-7.9,1.7-13.8,5-17.7c3.3-3.9,8-5.9,14.1-5.9c6.1,0,11,2,14.4,6S899.3,75.5,899.3,83.2z"/>
		<path class="st0" d="M1135.2,253.2c-8.3,6.6-17.4,12.2-27.2,16.4c-9.4,3.8-19.4,5.6-29.5,5.5c-9.9,0-18.7-2-26.2-5.9
			c-7.2-3.6-13.2-9.2-17.4-16c-4-6.6-6.1-14.2-6.1-21.9c0-10.6,3.4-19.7,10.1-27.1c6.7-7.5,16-12.5,27.7-15.1
			c2.5-0.6,8.6-1.9,18.3-3.8s18.1-3.8,25.1-5.5c7-1.6,14.5-3.6,22.7-6c-0.5-10.2-2.5-17.7-6.2-22.5c-3.7-4.8-11.2-7.2-22.7-7.2
			c-9.8,0-17.3,1.4-22.2,4.1c-5.2,3-9.6,7.2-12.8,12.4c-3.6,5.5-6.1,9.1-7.5,10.9c-1.5,1.7-4.6,2.6-9.4,2.6
			c-4.2,0.1-8.2-1.4-11.3-4.2c-3.1-2.7-4.9-6.6-4.8-10.7c0-6.8,2.4-13.4,7.2-19.9s12.4-11.7,22.6-15.9c10.2-4.2,23-6.3,38.2-6.2
			c17.1,0,30.5,2,40.2,6c9.8,4,16.6,10.4,20.7,19.1c4,8.7,6,20.3,6,34.7c0,9.1,0,16.8-0.1,23.2s-0.1,13.4-0.2,21.2
			c0.1,7.8,1.3,15.5,3.7,22.9c2.4,7.9,3.6,13,3.6,15.3c0,4-1.9,7.6-5.6,10.9c-3.5,3.2-8,4.9-12.7,4.9c-4,0-7.9-1.9-11.8-5.6
			S1139.5,260.3,1135.2,253.2z M1132.6,197c-8.1,2.7-16.4,4.9-24.8,6.6c-10.8,2.3-18.4,4-22.5,5.1c-4.4,1.2-8.5,3.4-11.9,6.4
			c-3.8,3.2-5.7,7.6-5.7,13.3c-0.1,5.7,2.4,11.2,6.7,15c4.5,4.1,10.3,6.2,17.5,6.2c7.4,0.1,14.7-1.7,21.2-5.1
			c6.5-3.3,11.3-7.7,14.3-13c3.5-5.9,5.3-15.5,5.3-29V197z"/>
	</g>
</g>
</svg>
